<svg version="1.1" xmlns="http://www.w3.org/2000/svg" xmlns:xlink="http://www.w3.org/1999/xlink" x="0px" y="0px"
	 viewBox="0 0 22 22" enable-background="new 0 0 22 22" xml:space="preserve">
<g>
	<circle fill="#80a0d0" cx="10.99" cy="18.25" r="1.75"/>
	<path fill="#80a0d0" d="M11,11.75c-1.518,0-3.002,0.541-4.18,1.522c-0.425,0.354-0.482,0.984-0.129,1.408
		c0.198,0.237,0.482,0.36,0.77,0.36c0.226,0,0.452-0.076,0.639-0.232c1.651-1.376,4.157-1.371,5.791-0.01
		c0.424,0.354,1.055,0.295,1.408-0.128c0.354-0.424,0.296-1.055-0.129-1.408C14.001,12.287,12.52,11.75,11,11.75z"/>
	<path fill="#80a0d0" d="M11,7.75c-2.463,0-4.857,0.875-6.744,2.465c-0.422,0.356-0.476,0.987-0.12,1.409
		c0.198,0.235,0.48,0.355,0.766,0.355c0.227,0,0.456-0.077,0.644-0.235C7.071,10.458,9.009,9.75,11,9.75
		c1.993,0,3.927,0.705,5.445,1.985c0.422,0.356,1.053,0.301,1.409-0.12c0.355-0.422,0.302-1.053-0.12-1.409
		C15.855,8.622,13.464,7.75,11,7.75z"/>
	<path fill="#80a0d0" d="M20.294,7.145C17.693,4.956,14.393,3.75,11,3.75c-3.396,0-6.702,1.205-9.313,3.394
		C1.265,7.499,1.209,8.129,1.563,8.553C1.762,8.789,2.045,8.91,2.331,8.91c0.227,0,0.454-0.077,0.642-0.234
		C5.223,6.789,8.074,5.75,11,5.75c2.922,0,5.766,1.039,8.007,2.925c0.424,0.357,1.054,0.301,1.408-0.121
		C20.771,8.131,20.717,7.5,20.294,7.145z"/>
</g>
</svg>
