<?xml version="1.0" encoding="utf-8"?>
<!-- Generator: Adobe Illustrator 19.2.1, SVG Export Plug-In . SVG Version: 6.00 Build 0)  -->
<svg version="1.1" xmlns="http://www.w3.org/2000/svg" xmlns:xlink="http://www.w3.org/1999/xlink" x="0px" y="0px"
	 viewBox="0 0 22 22" enable-background="new 0 0 22 22" xml:space="preserve">
<rect x="0" y="0" width="22" height="22" fill="#d62745" />
<path fill="#ffffff" d="M20.996,4.5c0-0.828-0.672-1.5-1.5-1.5c-0.766,0-1.391,0.576-1.48,1.316l-6.252,1.39
    C11.497,5.283,11.03,5,10.494,5C9.958,5,9.492,5.283,9.227,5.706l-6.251-1.39C2.884,3.576,2.26,3,1.494,3
    c-0.828,0-1.5,0.672-1.5,1.5c0,0.755,0.56,1.374,1.286,1.478l1.447,7.238C2.29,13.479,1.994,13.953,1.994,14.5
    c0,0.828,0.672,1.5,1.5,1.5c0.32,0,0.615-0.102,0.858-0.271l4.707,3.36c-0.038,0.132-0.064,0.269-0.064,0.411
    c0,0.828,0.672,1.5,1.5,1.5s1.5-0.672,1.5-1.5c0-0.145-0.026-0.279-0.063-0.41l4.707-3.361C16.881,15.898,17.176,16,17.496,16
    c0.828,0,1.5-0.672,1.5-1.5c0-0.547-0.296-1.021-0.732-1.283l1.446-7.238C20.435,5.874,20.996,5.255,20.996,4.5z M11.984,10.504
    c-0.291-0.217-0.624-0.379-0.99-0.453V7.908c0.525-0.188,0.91-0.654,0.98-1.225l5.742-1.276L11.984,10.504z M9.994,7.908v2.143
    c-0.368,0.074-0.702,0.236-0.992,0.454L3.267,5.406l5.746,1.277C9.083,7.253,9.469,7.723,9.994,7.908z M8.339,11.254
    c-0.214,0.368-0.345,0.79-0.345,1.246c0,0.064,0.014,0.126,0.019,0.189l-3.3,0.94c-0.232-0.325-0.591-0.551-1.005-0.608
    L2.277,5.865L8.339,11.254z M4.985,14.594l3.302-0.943c0.343,0.656,0.96,1.148,1.707,1.301v3.143
    c-0.128,0.047-0.249,0.104-0.358,0.182L4.93,14.913C4.959,14.809,4.978,14.703,4.985,14.594z M10.994,18.092v-3.143
    c0.747-0.151,1.363-0.643,1.707-1.299l3.304,0.941c0.007,0.109,0.026,0.217,0.056,0.316l-4.708,3.361
    C11.243,18.195,11.122,18.139,10.994,18.092z M16.277,13.632l-3.303-0.942c0.006-0.063,0.02-0.125,0.02-0.188
    c0-0.457-0.133-0.88-0.346-1.249l6.066-5.394l-1.433,7.162C16.868,13.081,16.509,13.307,16.277,13.632z"/>
</svg>
