<?xml version="1.0" encoding="utf-8"?>
<!-- Generator: Adobe Illustrator 19.2.1, SVG Export Plug-In . SVG Version: 6.00 Build 0)  -->
<svg version="1.1" xmlns="http://www.w3.org/2000/svg" xmlns:xlink="http://www.w3.org/1999/xlink" x="0px" y="0px"
	 viewBox="0 0 22 22" enable-background="new 0 0 22 22" xml:space="preserve">
<path fill="#ffffff" d="M10.999,6.235c-0.61,0.01-1.135,0.44-1.213,1.053c-0.025,0.114-0.025,0.237,0,0.348l0.619,4.423
    c0,0.012,0,0.012,0,0.025l0.037,0.186c0.072,0.24,0.287,0.412,0.557,0.424c0.272-0.012,0.486-0.184,0.558-0.424l0.036-0.186
    c0-0.012,0-0.012,0-0.025l0.62-4.423c0.025-0.111,0.025-0.234,0-0.348C12.136,6.676,11.61,6.246,10.999,6.235z"/>
<circle fill-rule="evenodd" clip-rule="evenodd" fill="#ffffff" cx="11" cy="14.811" r="0.953"/>
<g>
    <path fill="#ffffff" d="M19.926,11c0-2.485-1.007-4.735-2.636-6.364S13.411,2,10.926,2c-4.971,0-9,4.029-9,9
        c0,2.485,1.007,4.735,2.636,6.364S8.441,20,10.926,20C15.896,20,19.926,15.971,19.926,11z M10.926,18
        c-1.87,0-3.628-0.728-4.95-2.05s-2.05-3.08-2.05-4.95c0-1.87,0.728-3.628,2.05-4.95C7.298,4.728,9.056,4,10.926,4
        c1.87,0,3.628,0.728,4.95,2.05s2.05,3.08,2.05,4.95s-0.728,3.628-2.05,4.95C14.553,17.272,12.796,18,10.926,18z"/>
</g>
</svg>
